<?xml version="1.0" encoding="UTF-8"?>
<svg xmlns="http://www.w3.org/2000/svg" xmlns:xlink="http://www.w3.org/1999/xlink" width="500pt" height="500pt" viewBox="0 0 500 500" version="1.1">
<g id="surface1">
<path style=" stroke:none;fill-rule:nonzero;fill:#273043;fill-opacity:1;" d="M 317.460938 109.128906 L 367.0625 109.128906 C 372.527344 109.128906 376.984375 104.671875 376.984375 99.207031 L 376.984375 32.359375 C 376.984375 27.164063 372.992188 22.863281 367.800781 22.476563 C 352.027344 21.351563 321.179688 19.839844 299.015625 19.839844 C 238.09375 19.839844 198.414063 56.347656 198.414063 122.691406 L 198.414063 188.492188 L 128.96875 188.492188 C 123.503906 188.492188 119.046875 192.949219 119.046875 198.414063 L 119.046875 267.855469 C 119.046875 273.320313 123.503906 277.777344 128.96875 277.777344 L 198.414063 277.777344 L 198.414063 466.269531 C 198.414063 471.734375 202.871094 476.191406 208.332031 476.191406 L 277.777344 476.191406 C 283.242188 476.191406 287.699219 471.734375 287.699219 466.269531 L 287.699219 277.777344 L 359.351563 277.777344 C 364.390625 277.777344 368.652344 273.980469 369.195313 268.941406 L 376.90625 199.496094 C 377.566406 193.644531 372.992188 188.492188 367.0625 188.492188 L 287.699219 188.492188 L 287.699219 138.890625 C 287.699219 122.457031 301.027344 109.128906 317.460938 109.128906 Z "/>
</g>
</svg>
