<?xml version="1.0" encoding="UTF-8"?>
<svg xmlns="http://www.w3.org/2000/svg" xmlns:xlink="http://www.w3.org/1999/xlink" width="500pt" height="500pt" viewBox="0 0 500 500" version="1.1">
<g id="surface1">
<path style=" stroke:none;fill-rule:nonzero;fill:#E6E8EC;fill-opacity:1;" d="M 197.792969 128.660156 C 192.601563 128.851563 187.71875 131.101563 184.152344 134.859375 L 86.183594 234.066406 L 72.542969 248.015625 L 86.183594 261.964844 L 184.152344 361.171875 C 191.863281 369.039063 204.496094 369.195313 212.363281 361.484375 C 220.230469 353.769531 220.386719 341.136719 212.671875 333.269531 L 147.878906 267.855469 L 396.824219 267.855469 C 403.996094 267.972656 410.621094 264.214844 414.226563 258.015625 C 417.867188 251.851563 417.867188 244.179688 414.226563 238.019531 C 410.621094 231.816406 403.996094 228.058594 396.824219 228.175781 L 147.878906 228.175781 L 212.671875 162.761719 C 218.640625 156.984375 220.425781 148.152344 217.089844 140.515625 C 213.757813 132.921875 206.085938 128.191406 197.792969 128.660156 Z "/>
</g>
</svg>
