<?xml version="1.0" encoding="UTF-8"?>
<svg xmlns="http://www.w3.org/2000/svg" xmlns:xlink="http://www.w3.org/1999/xlink" width="500pt" height="500pt" viewBox="0 0 500 500" version="1.1">
<g id="surface1">
<path style=" stroke:none;fill-rule:nonzero;fill:#273043;fill-opacity:1;" d="M 287.699219 29.761719 C 266.8125 29.761719 242.398438 46.152344 238.714844 119.359375 C 241.816406 119.28125 244.875 119.046875 248.015625 119.046875 C 251.503906 119.046875 255.109375 119.242188 258.554688 119.359375 C 260.921875 75.375 271.382813 49.601563 287.699219 49.601563 C 294.675781 49.601563 298.625 53.402344 305.988281 61.382813 C 314.59375 70.722656 325.832031 82.851563 347.84375 87.425781 C 347.492188 84.828125 347.222656 82.039063 347.222656 79.363281 C 347.222656 75.179688 347.648438 71.226563 348.460938 67.273438 C 334.820313 63.554688 327.613281 55.6875 320.558594 48.054688 C 312.695313 39.527344 303.664063 29.761719 287.699219 29.761719 Z M 406.746094 39.683594 C 384.851563 39.683594 367.0625 57.507813 367.0625 79.363281 C 367.0625 101.222656 384.851563 119.046875 406.746094 119.046875 C 428.640625 119.046875 446.429688 101.222656 446.429688 79.363281 C 446.429688 57.507813 428.640625 39.683594 406.746094 39.683594 Z M 248.015625 138.890625 C 127.652344 138.890625 29.761719 200.195313 29.761719 287.699219 C 29.761719 375.203125 127.652344 446.429688 248.015625 446.429688 C 368.382813 446.429688 466.269531 375.203125 466.269531 287.699219 C 466.269531 200.195313 368.382813 138.890625 248.015625 138.890625 Z M 74.40625 148.191406 C 59.910156 148.191406 46.152344 154.117188 35.652344 164.621094 C 18.5625 181.710938 15.035156 206.28125 24.800781 226.625 C 39.796875 197.597656 65.609375 172.835938 98.894531 154.390625 C 91.339844 150.554688 82.96875 148.191406 74.40625 148.191406 Z M 421.628906 148.191406 C 413.0625 148.191406 404.691406 150.554688 397.136719 154.390625 C 430.421875 172.835938 456.234375 197.597656 471.230469 226.625 C 480.996094 206.28125 477.46875 181.710938 460.378906 164.621094 C 449.878906 154.117188 436.121094 148.191406 421.628906 148.191406 Z M 168.652344 228.175781 C 185.082031 228.175781 198.414063 241.503906 198.414063 257.9375 C 198.414063 274.367188 185.082031 287.699219 168.652344 287.699219 C 152.21875 287.699219 138.890625 274.367188 138.890625 257.9375 C 138.890625 241.503906 152.21875 228.175781 168.652344 228.175781 Z M 327.382813 228.175781 C 343.8125 228.175781 357.144531 241.503906 357.144531 257.9375 C 357.144531 274.367188 343.8125 287.699219 327.382813 287.699219 C 310.949219 287.699219 297.617188 274.367188 297.617188 257.9375 C 297.617188 241.503906 310.949219 228.175781 327.382813 228.175781 Z M 159.351563 337.300781 C 161.832031 337.726563 164.273438 339.121094 165.859375 341.332031 C 166.90625 342.804688 190.160156 373.882813 248.015625 373.882813 C 306.648438 373.882813 329.9375 341.953125 330.171875 341.640625 C 333.308594 337.183594 339.625 335.984375 344.121094 339.160156 C 348.578125 342.300781 349.429688 348.308594 346.292969 352.800781 C 345.128906 354.46875 316.839844 393.726563 248.015625 393.726563 C 179.152344 393.726563 150.902344 354.46875 149.738281 352.800781 C 146.601563 348.308594 147.414063 342.300781 151.910156 339.160156 C 154.15625 337.574219 156.871094 336.875 159.351563 337.300781 Z "/>
</g>
</svg>
