<?xml version="1.0" encoding="UTF-8"?>
<svg xmlns="http://www.w3.org/2000/svg" xmlns:xlink="http://www.w3.org/1999/xlink" width="500pt" height="500pt" viewBox="0 0 500 500" version="1.1">
<g id="surface1">
<path style=" stroke:none;fill-rule:nonzero;fill:#2500F9;fill-opacity:1;" d="M 296.070313 129.898438 C 288.355469 130.632813 281.769531 135.828125 279.25 143.152344 C 276.691406 150.515625 278.667969 158.652344 284.289063 164 L 348.460938 228.175781 L 99.207031 228.175781 C 98.585938 228.136719 97.964844 228.136719 97.347656 228.175781 C 86.378906 228.679688 77.929688 237.980469 78.433594 248.945313 C 78.9375 259.914063 88.238281 268.359375 99.207031 267.855469 L 348.460938 267.855469 L 283.976563 332.03125 C 276.1875 339.820313 276.1875 352.453125 283.976563 360.242188 C 291.765625 368.03125 304.402344 368.03125 312.191406 360.242188 L 410.15625 261.964844 L 424.417969 248.015625 L 410.15625 234.066406 L 312.191406 135.789063 C 308.003906 131.488281 302.074219 129.316406 296.070313 129.898438 Z "/>
</g>
</svg>
