<?xml version="1.0" encoding="UTF-8"?>
<svg xmlns="http://www.w3.org/2000/svg" xmlns:xlink="http://www.w3.org/1999/xlink" width="500pt" height="500pt" viewBox="0 0 500 500" version="1.1">
<g id="surface1">
<path style=" stroke:none;fill-rule:nonzero;fill:#FFFFFF;fill-opacity:1;" d="M 276.730469 29.839844 C 272.082031 29.53125 267.316406 30.109375 262.703125 31.699219 C 243.09375 37.9375 233.792969 58.789063 239.992188 77.582031 L 256.308594 130.402344 L 184.460938 154.972656 L 168.652344 104.246094 C 162.488281 84.441406 141.835938 75.023438 123.273438 81.300781 C 103.703125 87.542969 94.441406 108.390625 100.601563 127.1875 L 116.527344 178.183594 L 63.320313 196.359375 C 45.417969 202.675781 35.457031 223.679688 41.425781 242.589844 C 46.425781 258.402344 60.335938 267.855469 74.289063 267.855469 C 78.28125 267.855469 82.234375 266.8125 85.253906 265.726563 L 138.113281 247.667969 L 159.390625 315.910156 L 103.082031 335.207031 C 84.171875 341.527344 75.21875 362.566406 81.1875 381.480469 C 86.183594 397.289063 99.089844 406.746094 114.011719 406.746094 C 116.992188 406.746094 120.984375 405.699219 124.9375 404.613281 L 181.089844 385.664063 L 198.414063 441.234375 C 203.566406 455.84375 218.019531 466.269531 232.4375 466.269531 C 236.546875 466.269531 240.691406 465.222656 243.792969 464.175781 C 262.316406 457.898438 272.625 437.050781 266.460938 418.253906 L 249.140625 362.683594 L 320.558594 338.542969 L 336.914063 391.632813 C 342.066406 406.242188 356.484375 416.667969 370.9375 416.667969 C 375.046875 416.667969 379.152344 415.621094 382.253906 414.574219 C 400.816406 408.296875 411.125 387.449219 404.925781 368.652344 L 388.570313 315.601563 L 433.253906 300.488281 C 451.15625 293.125 461.078125 272.082031 454.140625 253.132813 C 448.132813 234.21875 428.253906 223.71875 410.351563 230.035156 L 366.753906 244.914063 L 345.710938 176.710938 L 392.910156 160.589844 C 411.824219 154.3125 420.8125 133.269531 414.804688 114.359375 C 408.839844 94.363281 388.957031 84.90625 371.015625 91.222656 L 324.28125 107.226563 L 308.042969 54.640625 C 303.394531 39.761719 290.644531 30.769531 276.730469 29.839844 Z M 277.777344 199.960938 L 298.820313 268.207031 L 227.359375 292.660156 L 206.085938 224.453125 Z "/>
</g>
</svg>
