<?xml version="1.0" encoding="UTF-8"?>
<svg xmlns="http://www.w3.org/2000/svg" xmlns:xlink="http://www.w3.org/1999/xlink" width="500pt" height="500pt" viewBox="0 0 500 500" version="1.1">
<g id="surface1">
<path style=" stroke:none;fill-rule:nonzero;fill:#273043;fill-opacity:1;" d="M 496.652344 103.546875 C 478.320313 111.683594 458.675781 117.148438 438.019531 119.628906 C 459.101563 106.996094 475.300781 87 482.894531 63.207031 C 463.207031 74.871094 441.3125 83.355469 418.101563 87.929688 C 399.5 68.089844 372.992188 55.726563 343.65625 55.726563 C 287.3125 55.726563 241.621094 101.375 241.621094 157.722656 C 241.621094 165.707031 242.550781 173.496094 244.296875 180.972656 C 159.503906 176.710938 84.363281 136.097656 34.023438 74.367188 C 25.226563 89.480469 20.230469 106.996094 20.230469 125.675781 C 20.230469 161.054688 38.210938 192.289063 65.609375 210.621094 C 48.867188 210.078125 33.132813 205.464844 19.375 197.832031 C 19.375 198.257813 19.375 198.683594 19.375 199.109375 C 19.375 248.558594 54.5625 289.753906 101.183594 299.167969 C 92.65625 301.496094 83.628906 302.734375 74.328125 302.734375 C 67.738281 302.734375 61.34375 302.113281 55.105469 300.875 C 68.125 341.371094 105.792969 370.9375 150.398438 371.753906 C 115.519531 399.113281 71.535156 415.386719 23.714844 415.386719 C 15.460938 415.386719 7.363281 414.921875 -0.582031 413.953125 C 44.527344 442.941406 98.160156 459.796875 155.785156 459.796875 C 343.425781 459.796875 446.042969 304.363281 446.042969 169.582031 C 446.042969 165.164063 445.925781 160.707031 445.769531 156.367188 C 465.6875 141.988281 482.972656 124.007813 496.652344 103.546875 Z "/>
</g>
</svg>
