<?xml version="1.0" encoding="UTF-8"?>
<svg xmlns="http://www.w3.org/2000/svg" xmlns:xlink="http://www.w3.org/1999/xlink" width="500pt" height="500pt" viewBox="0 0 500 500" version="1.1">
<g id="surface1">
<path style=" stroke:none;fill-rule:nonzero;fill:#FFFFFF;fill-opacity:1;" d="M 248.015625 19.839844 C 214.84375 19.839844 185.855469 38.714844 171.246094 66.226563 C 163.960938 64.328125 156.519531 63.398438 149.082031 63.398438 C 127.070313 63.398438 105.058594 71.691406 88.355469 88.355469 C 66.035156 110.714844 58.710938 142.570313 66.226563 171.246094 C 38.714844 185.855469 19.839844 214.84375 19.839844 248.015625 C 19.839844 281.1875 38.714844 310.175781 66.226563 324.785156 C 58.710938 353.460938 66.035156 385.316406 88.394531 407.675781 C 105.097656 424.339844 127.070313 432.632813 149.121094 432.632813 C 156.558594 432.632813 164 431.703125 171.246094 429.804688 C 185.855469 457.316406 214.84375 476.191406 248.015625 476.191406 C 281.1875 476.191406 310.175781 457.316406 324.785156 429.804688 C 332.070313 431.703125 339.511719 432.632813 346.949219 432.632813 C 368.960938 432.632813 390.972656 424.339844 407.675781 407.675781 C 429.996094 385.316406 437.320313 353.460938 429.804688 324.785156 C 457.316406 310.175781 476.191406 281.1875 476.191406 248.015625 C 476.191406 214.84375 457.316406 185.855469 429.804688 171.246094 C 437.320313 142.570313 429.996094 110.714844 407.636719 88.355469 C 390.933594 71.691406 368.960938 63.398438 346.914063 63.398438 C 339.472656 63.398438 332.03125 64.328125 324.785156 66.226563 C 310.175781 38.714844 281.1875 19.839844 248.015625 19.839844 Z M 248.015625 41.542969 C 272.121094 41.542969 294.207031 54.914063 305.640625 76.417969 L 313.703125 91.609375 L 330.324219 87.269531 C 335.75 85.835938 341.332031 85.101563 346.949219 85.101563 C 364.15625 85.101563 380.277344 91.726563 392.292969 103.742188 C 408.296875 119.746094 414.652344 143.5 408.800781 165.707031 L 404.421875 182.332031 L 419.613281 190.390625 C 441.121094 201.824219 454.488281 223.910156 454.488281 248.015625 C 454.488281 272.121094 441.121094 294.207031 419.613281 305.640625 L 404.421875 313.703125 L 408.800781 330.324219 C 414.613281 352.53125 408.296875 376.285156 392.292969 392.292969 C 380.277344 404.304688 364.15625 410.929688 346.949219 410.929688 C 341.332031 410.929688 335.75 410.195313 330.324219 408.761719 L 313.703125 404.421875 L 305.640625 419.613281 C 294.207031 441.121094 272.121094 454.488281 248.015625 454.488281 C 223.910156 454.488281 201.824219 441.121094 190.390625 419.613281 L 182.332031 404.421875 L 165.707031 408.761719 C 160.28125 410.195313 154.699219 410.929688 149.082031 410.929688 C 131.875 410.929688 115.753906 404.304688 103.742188 392.292969 C 87.734375 376.285156 81.378906 352.53125 87.230469 330.324219 L 91.609375 313.703125 L 76.417969 305.640625 C 54.949219 294.207031 41.542969 272.121094 41.542969 248.015625 C 41.542969 223.910156 54.914063 201.824219 76.417969 190.390625 L 91.609375 182.332031 L 87.269531 165.707031 C 81.417969 143.5 87.734375 119.746094 103.742188 103.742188 C 115.753906 91.726563 131.875 85.101563 149.082031 85.101563 C 154.699219 85.101563 160.28125 85.835938 165.707031 87.269531 L 182.332031 91.609375 L 190.429688 76.417969 C 201.863281 54.914063 223.910156 41.542969 248.015625 41.542969 Z M 338.8125 175.820313 L 215.425781 299.167969 L 157.21875 241 L 143.230469 255.03125 L 215.425781 327.226563 L 352.800781 189.847656 Z "/>
</g>
</svg>
